<svg width="102" height="66" viewBox="0 0 102 66" fill="none" xmlns="http://www.w3.org/2000/svg">
<path d="M101.329 33.9212C101.329 33.9023 101.329 33.8835 101.329 33.8646C101.321 33.2568 101.073 32.6769 100.639 32.2509C100.205 31.8248 99.6212 31.587 99.0134 31.5891H98.4049L88.9935 13.4099C88.7976 13.0327 88.5015 12.7169 88.1378 12.497C87.774 12.2772 87.3567 12.162 86.9317 12.164H70.8734L71.4857 7.30748C71.5859 6.37885 71.4879 5.43951 71.1981 4.55157C70.9083 3.66364 70.4334 2.84735 69.8046 2.15666C69.1758 1.46598 68.4076 0.916627 67.5507 0.544955C66.6938 0.173283 65.7678 -0.0122447 64.8338 0.000626712H14.9933C14.3844 0.00388188 13.7983 0.232589 13.3481 0.642608C12.8979 1.05263 12.6156 1.61489 12.5556 2.22084L12.0527 6.22126H40.4529C40.888 6.21901 41.319 6.3045 41.7202 6.47263C42.1215 6.64077 42.4847 6.88807 42.7882 7.19978C43.0917 7.51149 43.3292 7.88119 43.4866 8.28679C43.6439 8.69238 43.7179 9.12555 43.704 9.56038C43.6764 10.4522 43.3039 11.2985 42.6649 11.9213C42.026 12.5441 41.1704 12.8947 40.2782 12.8995H30.8064V12.9133H2.99711C2.36681 12.9166 1.76229 13.164 1.31054 13.6035C0.858794 14.0431 0.594969 14.6406 0.574487 15.2706C0.564332 15.5783 0.616386 15.8849 0.727531 16.172C0.838676 16.4592 1.00663 16.7209 1.22132 16.9416C1.43602 17.1623 1.69304 17.3374 1.977 17.4564C2.26097 17.5753 2.56602 17.6358 2.87391 17.6341H39.6973C40.5344 17.7613 41.2959 18.191 41.8375 18.8418C42.3792 19.4926 42.6635 20.3193 42.6367 21.1656C42.6066 22.1165 42.2107 23.0191 41.5315 23.6852C40.8522 24.3513 39.9421 24.7296 38.9908 24.7411H13.6091C12.9711 24.7444 12.3593 24.9953 11.9027 25.4409C11.446 25.8865 11.1803 26.492 11.1614 27.1298C11.1509 27.4407 11.2033 27.7505 11.3154 28.0407C11.4275 28.3308 11.5971 28.5954 11.8139 28.8184C12.0307 29.0415 12.2904 29.2184 12.5773 29.3387C12.8641 29.459 13.1724 29.5202 13.4834 29.5185H38.5721C39.4173 29.6349 40.1896 30.0595 40.7409 30.7105C41.2922 31.3616 41.5837 32.1934 41.5593 33.0462C41.5293 34.0016 41.13 34.9082 40.4454 35.5752C39.7607 36.2423 38.8441 36.6178 37.8882 36.6229H9.10963H6.69077C6.05275 36.6262 5.44093 36.8771 4.9843 37.3227C4.52767 37.7683 4.26189 38.3738 4.243 39.0116C4.2325 39.3225 4.28489 39.6323 4.39702 39.9225C4.50914 40.2126 4.67871 40.4772 4.89554 40.7002C5.11237 40.9233 5.37201 41.1003 5.65889 41.2205C5.94576 41.3408 6.25398 41.402 6.56505 41.4003H8.65201L7.83608 49.9417C7.736 50.8702 7.83415 51.8094 8.12403 52.6972C8.41392 53.585 8.88894 54.4011 9.51769 55.0917C10.1464 55.7822 10.9146 56.3314 11.7714 56.703C12.6282 57.0746 13.5541 57.2601 14.4879 57.2473H16.2895C16.7123 59.6674 17.9779 61.8599 19.8622 63.4363C21.7465 65.0128 24.128 65.8715 26.5847 65.8604C29.0836 65.8429 31.5036 64.9833 33.4535 63.4203C35.4034 61.8574 36.7691 59.6825 37.33 57.2473H59.7975C61.5909 57.2313 63.3211 56.5826 64.683 55.4155C65.9356 56.6089 67.6046 57.2661 69.3346 57.2473H69.7042C70.127 59.6674 71.3926 61.8599 73.2769 63.4363C75.1612 65.0128 77.5427 65.8715 79.9994 65.8604C82.4983 65.8429 84.9183 64.9833 86.8682 63.4203C88.8181 61.8574 90.1838 59.6825 90.7447 57.2473H92.2245C94.1318 57.2106 95.9601 56.479 97.3663 55.1899C98.7725 53.9008 99.6599 52.1429 99.862 50.2459L101.315 34.1537C101.315 34.1324 101.315 34.111 101.315 34.0884C101.315 34.0658 101.322 34.023 101.323 33.9891C101.324 33.9551 101.329 33.94 101.329 33.9212ZM26.7092 61.0868C25.9326 61.0902 25.1632 60.9371 24.4471 60.6368C23.7309 60.3364 23.0825 59.8948 22.5407 59.3385C21.9989 58.7821 21.5747 58.1223 21.2934 57.3984C21.0121 56.6745 20.8795 55.9014 20.9034 55.1251C20.9548 53.5334 21.6205 52.0233 22.7611 50.9118C23.9017 49.8003 25.4284 49.1737 27.021 49.1635C27.7976 49.1601 28.5669 49.3131 29.2831 49.6135C29.9993 49.9139 30.6476 50.3554 31.1895 50.9118C31.7313 51.4682 32.1555 52.128 32.4368 52.8519C32.7181 53.5758 32.8507 54.3489 32.8267 55.1251C32.7754 56.7169 32.1096 58.2269 30.969 59.3384C29.8285 60.45 28.3018 61.0766 26.7092 61.0868V61.0868ZM80.1264 61.0868C79.3498 61.0902 78.5805 60.9371 77.8643 60.6368C77.1481 60.3364 76.4998 59.8948 75.9579 59.3385C75.4161 58.7821 74.9919 58.1223 74.7106 57.3984C74.4293 56.6745 74.2967 55.9014 74.3207 55.1251C74.372 53.5334 75.0378 52.0233 76.1783 50.9118C77.3189 49.8003 78.8456 49.1737 80.4382 49.1635C81.2148 49.1601 81.9842 49.3131 82.7003 49.6135C83.4165 49.9139 84.0649 50.3554 84.6067 50.9118C85.1485 51.4682 85.5727 52.128 85.854 52.8519C86.1353 53.5758 86.2679 54.3489 86.244 55.1251C86.1926 56.7169 85.5269 58.2269 84.3863 59.3384C83.2457 60.45 81.719 61.0766 80.1264 61.0868V61.0868ZM95.116 49.9367C95.0361 50.621 94.7127 51.2538 94.205 51.7196C93.6972 52.1854 93.0389 52.453 92.3502 52.4737H90.751C90.2232 50.1708 88.9273 48.1161 87.0765 46.6476C85.2258 45.1791 82.9303 44.3842 80.5677 44.3937C78.1628 44.4104 75.8282 45.2071 73.9148 46.6641C72.0014 48.1211 70.6125 50.1598 69.9569 52.4737H69.4654C69.1807 52.4801 68.8978 52.4265 68.6352 52.3162C68.3727 52.206 68.1363 52.0416 67.9416 51.8338C67.7509 51.6185 67.6076 51.3656 67.521 51.0914C67.4344 50.8172 67.4064 50.5279 67.4387 50.2422L70.446 16.9263H77.3518L76.258 29.0583C76.1577 29.9869 76.2557 30.9263 76.5455 31.8142C76.8353 32.7021 77.3103 33.5184 77.9391 34.2091C78.5679 34.8998 79.3361 35.4492 80.193 35.8208C81.0499 36.1925 81.9759 36.378 82.9099 36.3652H96.3405L95.116 49.9367Z" fill="#FF6875"/>
</svg>
